<svg width="150" height="150" viewBox="0 0 150 150" fill="none" xmlns="http://www.w3.org/2000/svg">
<path d="M123.214 21.4286H107.143V8.03571C107.143 3.59766 103.545 0 99.1071 0H8.03571C3.59766 0 0 3.59766 0 8.03571V141.964C0 146.402 3.59766 150 8.03571 150H99.1071C103.545 150 107.143 146.402 107.143 141.964V127.865L134.131 115.819C143.771 111.517 150 101.916 150 91.3594V48.2143C150 33.4446 137.984 21.4286 123.214 21.4286ZM128.571 91.3594C128.571 92.3941 128.271 93.4064 127.708 94.2745C127.144 95.1425 126.342 95.8291 125.398 96.2515L107.143 104.399V42.8571H123.214C126.168 42.8571 128.571 45.2605 128.571 48.2143V91.3594ZM69.6429 117.857C66.6844 117.857 64.2857 115.458 64.2857 112.5V37.5C64.2857 34.5415 66.6844 32.1429 69.6429 32.1429C72.6013 32.1429 75 34.5415 75 37.5V112.5C75 115.458 72.6013 117.857 69.6429 117.857ZM37.5 117.857C34.5415 117.857 32.1429 115.458 32.1429 112.5V37.5C32.1429 34.5415 34.5415 32.1429 37.5 32.1429C40.4585 32.1429 42.8571 34.5415 42.8571 37.5V112.5C42.8571 115.458 40.4585 117.857 37.5 117.857Z" fill="#E8B100"/>
</svg>
